<svg width="66" height="64" viewBox="0 0 66 64" fill="none" xmlns="http://www.w3.org/2000/svg">
<g clip-path="url(#clip0_2_76)">
<path d="M65.5582 4.8067V14.4235H40.7928V29.6573H59.7711V39.1039H40.7928V64.2098H28.8781V4.8067H65.5582Z" fill="white"/>
<path d="M33.7607 64.1282L19.544 39.0179H13.451V64.1282H0.526642V-0.309113H24.7138C29.6988 -0.309113 33.9455 0.583286 37.4535 2.36808C40.9615 4.09134 43.5772 6.4608 45.3004 9.47649C47.0852 12.4306 47.9776 15.7541 47.9776 19.4467C47.9776 23.6933 46.7467 27.5399 44.2849 30.9864C41.8231 34.3713 38.1612 36.7101 33.2993 38.0025L48.7161 64.1282H33.7607ZM13.451 29.3246H24.2521C27.7601 29.3246 30.3758 28.4938 32.0991 26.8322C33.8224 25.1089 34.684 22.7394 34.684 19.7237C34.684 16.7695 33.8224 14.4924 32.0991 12.8922C30.3758 11.2305 27.7601 10.3997 24.2521 10.3997H13.451V29.3246Z" fill="#FF6B6B"/>
</g>
<defs>
<clipPath id="clip0_2_76">
<rect width="64.8889" height="64" fill="white" transform="translate(0.555542)"/>
</clipPath>
</defs>
</svg>
